<svg id="Layer_1" data-name="Layer 1"
    xmlns="http://www.w3.org/2000/svg" viewBox="0 0 434.95 435.05" fill="white">
    <title>IK_logo</title>
    <path d="M218.51.76A215.34,215.34,0,0,1,371.84,64.34q62.51,63,64.19,152c-.14,60.17-21.12,112-63.2,154.9-84,85.22-221.17,86.21-306.4,2.22-.79-.78-1.57-1.57-2.35-2.36-40.85-41.71-61.8-92-63-150.41,0-60.26,21-112.15,63.08-155.2A215.26,215.26,0,0,1,218.51.76Zm0,7.73c-57.33.95-106.67,21.27-147.8,61.38C30.48,110.92,9.71,160.1,8.9,217.64,9.34,275.51,30.06,325,70.38,366.38c42.12,41,92.5,61.71,151.37,61.52,56.41-1.49,104.67-22.18,145-61.59,41.18-42.3,61.78-92.92,61.42-152-1.69-56.13-22.38-104.15-61.6-144.26Q304.85,9.77,218.5,8.51Z" transform="translate(-1.08 -0.76)"/>
    <path d="M403,216.93c-.12,4-.14,7.26-.33,10.49A186.83,186.83,0,0,1,400.52,247a184.09,184.09,0,0,1-17.26,53.11,187,187,0,0,1-64.94,72.62,183.13,183.13,0,0,1-67.62,26.76,13.75,13.75,0,0,1-4.38.38,7.92,7.92,0,0,1-.17-15.68,166.83,166.83,0,0,0,38.69-11.46A169.93,169.93,0,0,0,343.1,330.9,173.18,173.18,0,0,0,359,310.46a169.24,169.24,0,0,0,17.1-33.3,167.16,167.16,0,0,0,7.63-26.32,137.82,137.82,0,0,0,2.29-15c.27-3,.49-6,.72-8.94a146.3,146.3,0,0,0,.14-17.14,157.91,157.91,0,0,0-1.53-15.95,167.84,167.84,0,0,0-5.68-25.44,165.22,165.22,0,0,0-6.83-18.28A168.53,168.53,0,0,0,349.57,112q-5.2-6.44-11-12.34A171.93,171.93,0,0,0,323.64,86.2a167.66,167.66,0,0,0-79.45-35c-3.78-.58-7.6-1-11.41-1.31-3-.27-6-.39-9-.49s-6.15-.23-9.22-.14c-3.51.1-7,.36-10.51.65a168,168,0,0,0-24.31,3.93,178.59,178.59,0,0,0-24.56,7.65,7.93,7.93,0,1,1-5.9-14.73A198.8,198.8,0,0,1,173,39.13a186.17,186.17,0,0,1,19-3.8c3.79-.54,7.6-.9,11.41-1.3a146.58,146.58,0,0,1,16.5-.7c3.28,0,6.56.11,9.82.32a183.6,183.6,0,0,1,83.38,25.89A188,188,0,0,1,340,79.17c4.12,3.6,8.07,7.41,11.85,11.37a185.7,185.7,0,0,1,40.86,66.76A178.69,178.69,0,0,1,400,185.07c.75,4.24,1.28,8.52,1.79,12.79.35,3,.55,6,.73,8.94C402.71,210.46,402.84,214.09,403,216.93Z" transform="translate(-1.08 -0.76)"/>
    <path d="M83.32,93.38V76h61.35v17.4h-5.19a28.58,28.58,0,0,0-3.21.3c-4.26.64-6.85,3.34-8.56,7.08a27.91,27.91,0,0,0-2.39,9.23c-.27,3.29-.52,6.6-.56,9.91q-.18,14.68-.18,29.38v167c0,3.43,0,6.87.26,10.3.26,4.26.68,8.52,2.33,12.54.3.73.65,1.45,1,2.17a9,9,0,0,0,7.36,5.27c1.74.23,3.49.33,5.24.42,1.27.06,2.54,0,3.89,0v17.16H83.33V347h2.06c2.23-.09,4.47-.1,6.69-.32,4.45-.46,7.18-3.12,8.82-7.13a27.36,27.36,0,0,0,1.8-7.78c.47-4.85.57-9.72.57-14.6V120.06a106.87,106.87,0,0,0-.77-13.38,24.23,24.23,0,0,0-2-7.12,9.77,9.77,0,0,0-8.61-5.94c-2.35-.19-4.71-.16-7.06-.23Z" transform="translate(-1.08 -0.76)"/>
    <path d="M34,217.76c.14-3.71.17-7.39.41-11a189.66,189.66,0,0,1,15.44-63.34,185,185,0,0,1,17.71-31.78c.44-.62.83-1.27,1.27-1.89a7.64,7.64,0,0,1,8.11-3.37,7.54,7.54,0,0,1,6.21,6,7.62,7.62,0,0,1-1.27,6.5A162.52,162.52,0,0,0,67,144a173.79,173.79,0,0,0-15.82,53.88c-.39,3.08-.57,6.19-.83,9.29A121,121,0,0,0,50,220.19c.11,4.74.37,9.48.82,14.21A174,174,0,0,0,54,254.83a171.2,171.2,0,0,0,5.43,19.24,167.52,167.52,0,0,0,8.72,20.63A156.81,156.81,0,0,0,82.1,317.34c1,1.38,2.12,2.7,3.17,4.07a7.78,7.78,0,0,1,1.19,8.22,7.57,7.57,0,0,1-7,4.83,7.9,7.9,0,0,1-6.82-3.36A176.2,176.2,0,0,1,57.1,307.64a185.31,185.31,0,0,1-20.17-57.51,156.28,156.28,0,0,1-2.14-16.6q-.28-3.93-.48-7.88C34.17,223,34.09,220.38,34,217.76Z" transform="translate(-1.08 -0.76)"/>
    <path d="M186.16,371.68c-.31.29-.55.5-.77.73-2.95,2.88-5.88,5.77-8.84,8.63a1.4,1.4,0,0,0-.45,1.16v24c0,1.73-.76,2.53-2.46,2.54h-9.23a2.16,2.16,0,0,1-2.19-2.13V331.92a2.27,2.27,0,0,1,2.21-2.34h.22c3,.1,6,0,9,0,1.71,0,2.45.76,2.45,2.51V364c.41-.33.65-.49.86-.7l13-12.94,19.87-19.82a3,3,0,0,1,2.25-.92h12.6a2,2,0,0,1,1.48,3.49l-9.49,9.16L212.78,346l-16.36,15.86a2,2,0,0,1-.46.24,11.92,11.92,0,0,0,.7,1q13.35,18.15,26.72,36.29c1.44,2,2.87,3.94,4.34,5.88a2.16,2.16,0,0,1,.39,2.34A2,2,0,0,1,226,408.7H213.84a2.73,2.73,0,0,1-2.4-1.3q-6.74-9.61-13.52-19.21l-11-15.6C186.71,372.34,186.47,372.07,186.16,371.68Z" transform="translate(-1.08 -0.76)"/>
</svg>